<?xml version="1.0" encoding="UTF-8" standalone="no"?>
<!-- Created with Inkscape (http://www.inkscape.org/) -->

<svg
   version="1.1"
   id="svg1"
   width="740"
   height="740"
   viewBox="0 0 740 740"
   sodipodi:docname="stat-ink-stroke.svg"
   inkscape:version="1.3.2 (091e20e, 2023-11-25, custom)"
   xmlns:inkscape="http://www.inkscape.org/namespaces/inkscape"
   xmlns:sodipodi="http://sodipodi.sourceforge.net/DTD/sodipodi-0.dtd"
   xmlns="http://www.w3.org/2000/svg"
   xmlns:svg="http://www.w3.org/2000/svg">
  <defs
     id="defs1">
    <inkscape:path-effect
       effect="bspline"
       id="path-effect8"
       is_visible="true"
       lpeversion="1.3"
       weight="33.333333"
       steps="2"
       helper_size="0"
       apply_no_weight="true"
       apply_with_weight="true"
       only_selected="false"
       uniform="false" />
    <inkscape:path-effect
       effect="spiro"
       id="path-effect7"
       is_visible="true"
       lpeversion="1" />
    <inkscape:path-effect
       effect="bspline"
       id="path-effect6"
       is_visible="true"
       lpeversion="1.3"
       weight="33.333333"
       steps="2"
       helper_size="0"
       apply_no_weight="true"
       apply_with_weight="true"
       only_selected="false"
       uniform="false" />
    <inkscape:path-effect
       effect="bend_path"
       id="path-effect5"
       is_visible="true"
       lpeversion="1"
       bendpath="m -9.4280904,131.99327 c 1.3468701,4.04061 2.6937401,8.08122 21.7747664,25.36636 19.081026,17.28513 55.894741,47.81358 106.403004,65.32293 50.50827,17.50936 114.7078,21.99883 176.66442,19.52948 61.95662,-2.46936 121.66666,-11.89726 186.5416,-19.3051 64.87494,-7.40784 134.91079,-12.79521 181.37803,-26.93758 46.46725,-14.14236 69.36358,-37.03869 92.26037,-59.93548"
       prop_scale="0.54"
       scale_y_rel="false"
       vertical="false"
       hide_knot="false" />
    <inkscape:path-effect
       effect="bend_path"
       id="path-effect5-1"
       is_visible="true"
       lpeversion="1"
       bendpath="M 13.468701,193.94929 C 93.461347,171.42595 175.72111,156.9627 258.59905,150.84945 c 97.68339,-7.20533 195.8247,-2.82856 293.61767,2.69374 50.30143,2.84049 100.58579,5.98326 150.84945,9.42809"
       prop_scale="0.54"
       scale_y_rel="false"
       vertical="false"
       hide_knot="false" />
    <inkscape:path-effect
       effect="bend_path"
       id="path-effect5-1-2"
       is_visible="true"
       lpeversion="1"
       bendpath="m 13.923529,109.19436 c 24.049732,-7.19737 48.099465,-14.394737 81.431981,-18.610351 33.33251,-4.21561 75.94609,-5.449422 133.11765,-2.364762 57.17158,3.08466 128.89742,10.48752 193.87447,8.225373 64.97705,-2.262153 123.20156,-14.188983 161.8079,-26.630277 38.60633,-12.441294 57.59259,-25.396298 76.57921,-38.351561"
       prop_scale="0.54"
       scale_y_rel="false"
       vertical="false"
       hide_knot="false" />
  </defs>
  <sodipodi:namedview
     id="namedview1"
     pagecolor="#505050"
     bordercolor="#eeeeee"
     borderopacity="1"
     inkscape:showpageshadow="0"
     inkscape:pageopacity="0"
     inkscape:pagecheckerboard="0"
     inkscape:deskcolor="#505050"
     showgrid="false"
     inkscape:zoom="0.74246212"
     inkscape:cx="433.69216"
     inkscape:cy="451.8749"
     inkscape:window-width="1920"
     inkscape:window-height="991"
     inkscape:window-x="-9"
     inkscape:window-y="-9"
     inkscape:window-maximized="1"
     inkscape:current-layer="g1" />
  <g
     inkscape:groupmode="layer"
     inkscape:label="Image"
     id="g1">
    <path
       style="fill:#000000"
       d="m 280.55889,127.77678 c -2.95248,-0.82204 -8.37984,-1.37907 -25.64438,-2.39988 -17.60966,-1.04121 -21.92351,-1.35595 -23.20736,-2.04838 -2.64139,-1.42456 -1.30639,-2.92731 3.71789,-4.06783 4.06672,-0.92317 6.48519,-1.0199 22.66825,-0.37385 15.80892,0.63112 19.09823,0.64297 26.02274,-0.1627 7.35964,-0.85629 8.79291,-0.82471 21.04912,0.13134 5.37189,0.41904 10.41802,0.6991 15.82602,0.84093 8.11717,0.21657 17.96764,0.14263 30.97676,-0.37234 6.96737,-0.2758 14.80266,-0.46236 16.86303,-0.34976 12.84325,0.70185 30.01113,-0.11996 43.81455,-2.26775 3.45207,-0.53713 7.33503,-1.11436 10.35384,-1.54212 0,0 0,0 0,0 3.60651,-0.51259 6.50849,-0.89017 7.73084,-0.94887 7.46837,-0.35866 9.43702,-1.68931 4.56502,-2.42588 -2.0535,-0.31046 -3.02903,-0.1959 -4.32958,0.51936 -1.39053,0.76475 -2.42449,0.86331 -6.07287,0.50461 -0.64229,-0.0631 -1.30153,-0.1197 -1.98116,-0.16969 -10.23457,-0.75807 -22.25432,0.0247 -48.50112,1.28281 -14.68146,0.70375 -14.00343,0.67218 -25.62824,-0.88277 -8.15953,-1.09145 -13.15948,-1.45714 -23.99045,-1.80673 -0.92425,-0.0298 -2.03185,-0.074 -3.29514,-0.13154 -9.87347,-0.44622 -25.25608,-1.50614 -40.5583,-2.7686 -27.46142,-2.26566 -29.69282,-2.47055 -26.05893,-2.94062 2.15286,-0.27848 5.42292,-0.27218 7.27691,0.0133 1.97576,0.30419 2.84691,0.2979 2.10576,-0.0178 -0.93901,-0.39995 -0.69099,-0.58076 0.97818,-0.70821 1.23158,-0.094 2.43264,-0.0452 2.6684,0.10808 0.23579,0.15325 -0.0797,0.24361 -0.70091,0.20091 -0.62123,-0.0427 -1.14598,0.16489 -1.1663,0.4612 -0.0529,0.77208 10.94962,1.43332 12.44308,0.73465 0.78942,-0.36931 3.38895,-0.37233 7.12504,-0.0101 4.53509,0.43964 5.79887,0.39831 5.50074,-0.1706 -0.21301,-0.40668 -1.65679,-0.85483 -3.20728,-0.99622 -0.0972,-0.009 -5.871,-0.54009 -5.96822,-0.54895 -3.57326,-0.33103 -4.29664,-1.45419 -0.79874,-1.21106 1.25104,0.087 3.56294,-0.34993 5.13765,-0.97126 1.97859,-0.78068 4.53516,-1.11462 8.27676,-1.08534 3.00669,0.0235 8.91766,-0.18176 13.26257,-0.46763 4.69933,-0.30918 8.08879,-0.46927 14.33279,-0.65474 3.37275,-0.09995 6.33336,-0.172507 11.3595,-0.308536 2.05388,-0.05559 3.1933,-0.39147 3.22205,-0.94388 0.0368,-0.706452 -0.59372,-0.809833 -3.62627,-0.61112 -1.44477,0.09467 -5.75486,0.04829 -10.83867,-0.118191 0,0 -10e-6,0 -10e-6,0 -2.08279,-0.06806 -4.27411,-0.155971 -6.45559,-0.261271 -13.76814,-0.664576 -50.45119,-2.392794 -62.05045,-2.757878 -7.96058,-0.250557 -13.62802,-1.256339 -12.79714,-2.317168 0.77183,-0.985447 -2.51755,-2.030743 -10.08282,-3.100703 -0.83874,-0.118625 -1.66943,-0.244482 -2.46065,-0.371678 0,0 0,0 0,0 -2.85811,-0.459256 -5.22034,-0.93943 -5.70441,-1.188452 -0.73067,-0.375878 -1.84146,-0.404901 -3.16419,-0.08073 -2.57587,0.63128 -18.16897,-1.177632 -20.08947,-2.328116 -2.32955,-1.395538 0.0678,-1.962452 9.44946,-1.894554 4.85201,0.03512 9.27554,-0.176378 9.94979,-0.508619 1.56191,-0.769637 0.31478,-1.114966 -7.36679,-1.75163 -3.09594,-0.256597 -9.25241,-1.013985 -13.15649,-1.608366 -6.32101,-0.962343 -16.06848,-1.565711 -26.95014,-1.456329 -5.87959,0.0591 -15.65408,0.05596 -21.53367,0.115056 -7.41242,0.06486 -13.58703,0.176602 -14.08482,0.02607 -0.66324,-0.200574 -11.31584,0.0014 -23.67169,1.01018 -7.22977,0.590252 -13.006801,1.143734 -17.922137,1.603325 -4.677559,0.447427 -7.846631,0.763157 -9.351701,0.780359 -3.643457,0.04164 -12.309444,1.393154 -21.294328,3.432247 -8.846564,2.007702 -17.135736,4.479152 -19.666324,5.734804 -6.492873,3.221701 -10.156412,4.202042 -20.106943,5.568218 -9.758895,1.339859 -13.172704,1.626041 -13.402367,0.858849 -0.225699,-0.75395 0.647457,-1.278167 11.255795,-5.585997 4.664449,-1.894136 13.199909,-5.386748 15.046192,-6.188066 3.242029,-1.407092 6.689445,-2.448066 10.063377,-3.037408 2.48214,-0.433569 7.236402,-1.315714 9.070222,-1.688796 7.362894,-1.497934 19.398027,-4.499116 37.456731,-7.222477 11.226863,-1.659946 21.378513,-2.779028 24.743463,-3.258333 5.3312,-0.759376 16.72631,-1.786736 28.45443,-2.266743 15.13398,-0.619396 20.8297,-0.692023 24.98492,-1.393288 3.25111,-0.548682 12.26638,-1.014966 26.75488,-0.919716 11.94628,0.07854 22.1597,0.189756 22.76834,0.0063 0.2429,-0.07323 3.4727,-0.01902 8.71286,0.167574 8.47019,0.29002 19.80207,0.832839 34.06341,1.6849 21.79186,1.301983 32.38336,1.978299 41.21727,2.0997 8.15683,0.112095 12.77424,-0.339873 19.05249,-1.327897 0.88951,-0.139941 1.81573,-0.291073 2.79026,-0.453111 3.83507,-0.637665 7.03101,-0.963647 14.01249,-1.122074 6.93087,-0.157278 17.52798,-0.05612 35.66229,-0.416163 8.50621,-0.168883 16.95146,-0.446352 25.35951,-0.866243 7.11379,-0.355257 14.68486,-1.128413 17.64112,-1.701003 0.49019,-0.09495 1.06318,-0.18684 1.75243,-0.278825 4.92623,-0.653381 15.79912,-0.810757 43.68336,-3.962622 22.14437,-2.503062 40.90533,-6.182923 41.91163,-6.595906 0.0908,-0.03725 0.22831,-0.08137 0.40888,-0.131775 1.76123,-0.493342 8.10778,-1.686305 14.59632,-2.854591 11.4765,-2.066385 31.41372,-6.633778 51.66696,-13.597106 9.77813,-3.384827 17.91081,-6.69956 24.76862,-9.939313 6.59188,-3.114122 11.10732,-5.752366 12.67527,-6.839903 0.58258,-0.404082 1.13617,-0.790946 1.65608,-1.155179 7.73973,-5.329969 9.52939,-6.39357 11.20518,-3.739498 1.20191,1.903648 3.94549,2.095635 8.48107,0.280255 5.26382,-2.10687 5.93335,-1.125209 1.69331,4.288643 -5.17841,6.612016 -5.56436,7.031907 -4.21886,7.834731 0.81072,0.483737 3.66697,0.288582 7.01606,-0.398213 3.3621,-0.689463 7.11337,-1.84994 9.67986,-3.09664 8.43594,-4.097864 9.60269,-3.796597 3.49944,2.460505 -1.99129,2.041496 -4.50993,5.697805 -6.6233,9.484118 -3.78096,6.773959 -7.40395,11.828933 -10.27248,14.73613 -0.85555,0.867077 -1.5191,1.643084 -2.04912,2.443259 -0.81749,1.234336 -1.30022,2.505328 -1.67631,4.214589 -0.49982,2.271608 -6.41907,8.004627 -13.96256,12.786662 -3.77483,2.39298 -7.05127,5.561341 -6.64154,6.604023 0.31486,0.801259 -1.04245,1.404142 -3.89251,1.647096 -1.53699,0.131019 -2.88828,0.652961 -4.93854,1.877784 -1.67247,0.999131 -5.42168,2.91037 -8.87346,4.468025 -0.62683,0.282863 -1.23113,0.553492 -1.81009,0.811306 -13.88774,6.205625 -13.96248,5.90505 -15.26684,9.0998 -0.67676,1.657563 -2.88921,3.288352 -9.15384,6.376653 -3.75242,1.84985 -4.04067,3.25874 -0.51948,3.66523 3.31451,0.38263 4.40668,2.3124 1.88788,3.56965 -0.91115,0.4548 -11.76254,3.65031 -24.13995,6.53322 -8.95093,2.08484 -16.04627,3.61469 -23.10344,5.11391 -3.2653,0.69707 -5.85608,1.24657 -7.36268,1.59575 -4.91938,1.14016 -14.25534,2.92047 -23.14413,4.2632 -6.49092,0.9805 -20.23849,3.02581 -22.28621,3.37686 -4.78861,0.82095 -22.16721,2.66615 -42.5016,3.51455 -23.2417,0.94755 -45.40619,0.47772 -53.14861,-0.0461 -4.51864,-0.30571 -20.38313,-0.82818 -30.70319,-1.07703 -9.24327,-0.22287 -15.45385,-0.50995 -19.40462,-0.82253 -2.76385,-0.21631 -4.70084,-0.46336 -6.27249,-0.76456 -4.35382,-0.83439 -5.78529,-0.90028 -9.47877,-0.41833 -5.5479,0.72394 -18.81428,-0.20223 -24.03847,-1.65675 z m 165.44339,-17.27713 c -1.33751,-0.6102 -5.13863,0.34132 -5.08108,1.27403 0.0366,0.59392 0.64552,0.59676 3.06906,-0.0295 1.96448,-0.50762 2.66176,-0.94813 2.01202,-1.24455 z m -140.12501,-2.55731 c 0.009,-0.13068 -0.41333,-0.4161 -0.93721,-0.63438 -0.52385,-0.21827 -0.96925,-0.14024 -0.98992,0.17362 -0.0207,0.31385 0.40091,0.59952 0.93694,0.63465 0.53604,0.0351 0.98166,-0.0432 0.99019,-0.17389 z m -7.60834,-3.24272 c 0.0299,-0.4445 -0.3832,-0.83765 -0.91801,-0.87378 -0.53481,-0.0361 -0.99697,0.29787 -1.0271,0.74236 -0.0301,0.44448 0.38287,0.83782 0.91787,0.87397 0.53499,0.0361 0.99729,-0.29806 1.02724,-0.74255 z M 211.3204,85.489469 c -0.45288,-0.442894 -1.01213,-0.498138 -1.67631,-0.165174 -0.54804,0.274743 -0.68952,0.79822 -0.31568,1.163011 0.45322,0.442255 1.01104,0.496992 1.67487,0.164723 0.54757,-0.274073 0.69082,-0.797095 0.31712,-1.16256 z M 171.24686,82.08288 c -0.33209,-0.481568 -0.30839,-1.037882 0.0542,-1.2363 0.83268,-0.455703 4.05415,0.650796 3.78805,1.300123 -0.35773,0.872967 -3.22908,0.825306 -3.84222,-0.06382 0,-2e-6 -1e-5,-4e-6 -1e-5,-6e-6 z"
       id="path1-1"
       inkscape:path-effect="#path-effect5-1-2"
       inkscape:original-d="m 310.5,438.38077 c -3.19248,-1.17987 -8.56047,-1.41799 -26.59002,-1.17954 -18.31494,0.24223 -22.9133,0.0315 -24.29826,-1.11372 -2.85905,-2.36408 -1.52554,-5.26666 3.63778,-7.91816 4.27847,-2.19712 6.60905,-2.52965 23.5,-3.35302 16.24164,-0.79171 19.82092,-1.27543 26.7505,-3.61517 7.39615,-2.49727 9.019,-2.67765 21.5,-2.38966 14.04211,0.324 25.47801,-0.61429 47.5,-3.89729 7.15,-1.06591 14.8,-1.85032 17,-1.74314 12.60755,0.61423 30.50272,-1.27611 44,-4.6479 7.7,-1.92356 15.8757,-3.50318 18.16821,-3.51027 7.27902,-0.0225 9.73324,-2.14937 4.69194,-4.06607 -2.0403,-0.77572 -3.03219,-0.64862 -4.36727,0.55961 -1.4397,1.30291 -2.45737,1.37926 -6.11014,0.4584 -9.63307,-2.42847 -23.26062,-2.00062 -50.88274,1.59751 -15.47823,2.01624 -13.49921,2.01711 -26,-0.0114 -8.16342,-1.32471 -13.61544,-1.55984 -24.5,-1.05659 -7.7,0.35601 -27.94811,0.32256 -44.99581,-0.0743 -28.42791,-0.66184 -30.66476,-0.83866 -27,-2.13426 2.1977,-0.77695 5.57081,-1.17184 7.49581,-0.87752 2.0554,0.31425 2.94918,0.19134 2.16547,-0.2978 -0.9946,-0.62076 -0.751,-0.98552 0.95633,-1.432 1.25997,-0.32949 2.49801,-0.39192 2.7512,-0.13874 C 296.12618,397.79285 295.80833,398 295.16667,398 294.525,398 294,398.45 294,399 c 0,1.44769 11.35923,1.24077 12.83379,-0.23379 0.78321,-0.78321 3.45125,-1.12389 7.30571,-0.93286 4.67763,0.23182 5.96889,-0.002 5.62324,-1.01622 -0.24677,-0.72442 -1.75684,-1.36901 -3.35571,-1.43242 -1.59886,-0.0634 -4.36953,-0.17591 -6.15703,-0.25 C 306.57031,394.98219 305.72947,393 309.34446,393 c 1.28945,0 3.62905,-1.10381 5.1991,-2.45292 1.97205,-1.69453 4.57085,-2.63953 8.40554,-3.05648 3.053,-0.33196 9.1509,-1.45557 13.5509,-2.49691 6.98878,-1.65402 11.77216,-2.49397 26.25,-4.60943 2.10047,-0.30692 3.25,-1.03569 3.25,-2.06042 0,-1.30973 -0.6523,-1.4444 -3.75,-0.77423 -2.0625,0.44621 -10.05,0.96487 -17.75,1.15257 -15.02686,0.36632 -51.0041,1.8548 -63.85198,2.64174 -8.20317,0.50245 -14.09725,-0.73086 -13.30905,-2.78487 0.73758,-1.9221 -2.72156,-3.44598 -10.55159,-4.64837 -4.00806,-0.61549 -7.82111,-1.5534 -8.47346,-2.08427 -0.76994,-0.62655 -1.91144,-0.57699 -3.2535,0.14126 -2.70466,1.44748 -18.63008,-0.68019 -20.71785,-2.76795 -2.47778,-2.47779 0.0478,-3.56909 9.61176,-4.15324 4.97247,-0.30371 9.48768,-1.08723 10.1637,-1.7637 1.58733,-1.58839 0.23828,-2.05158 -7.61803,-2.61557 -3.3,-0.2369 -9.375,-1.16201 -13.5,-2.0558 -6.46592,-1.401 -16.44332,-2.04563 -27.5,-1.77674 -11.14,0.27091 -35.21015,-0.47091 -36.2049,-1.11581 -0.66269,-0.42963 -11.46269,-0.92809 -24,-1.1077 -14.08256,-0.20173 -24.60598,-0.80736 -27.53301,-1.58452 -6.77394,-1.79857 -36.815311,-0.9316 -42.26209,1.21965 -7.043712,2.78198 -11.188445,2.82816 -21.165728,0.23585 C 34.415799,351.9051 31,350.50686 31,349.02383 c 0,-1.45743 1.044651,-1.79401 12.559469,-4.04656 6.017292,-1.17711 13.33514,-2.81981 16.261883,-3.65044 3.497746,-0.99268 7.096055,-1.29166 10.5,-0.87243 2.848257,0.35079 6.978648,0.70724 9.178648,0.7921 8.597123,0.33164 54.45796,-1.40081 62.44044,-2.35876 4.64224,-0.5571 17.46724,-1.18468 28.5,-1.39463 14.64447,-0.27867 21.40931,-0.8093 25.05956,-1.96565 3.35407,-1.06253 12.20781,-1.91408 26.89587,-2.58684 12.04273,-0.55159 22.39273,-1.32638 23,-1.72175 0.60727,-0.39538 20.22913,-0.99126 43.60413,-1.32418 46.4879,-0.6621 49.72957,-1.01886 65,-7.15354 7.79125,-3.13002 13.60346,-3.88453 52,-6.75037 7.425,-0.55419 19.575,-1.45997 27,-2.01285 7.425,-0.55288 15.975,-1.68342 19,-2.51232 4.34089,-1.18947 14.75283,-1.6257 49.40476,-2.06994 24.14762,-0.30957 44.84762,-0.91717 46,-1.35022 1.15238,-0.43304 8.62024,-0.57492 16.59524,-0.31528 23.05025,0.75045 98.16361,-1.49755 107.5,-3.21726 13.80959,-2.54366 16.47963,-1.90742 16.52224,3.93709 0.0305,4.19146 2.648,7.09851 7.97776,8.86049 6.24596,2.06486 5.97776,4.30943 -1,8.36896 -8.79452,5.1165 -9.34971,5.64335 -8.56204,8.12507 0.97443,3.07018 11.30634,9.85832 17.19114,11.29472 9.91613,2.42039 10.29775,4.17622 1.60671,7.3924 -2.91832,1.07995 -7.23035,4.11862 -11.23581,7.91783 -7.07416,6.70989 -13.08499,11.51558 -17,13.59156 -3.03437,1.60901 -4.66094,3.51097 -6.50882,7.6108 -1.45159,3.22062 -9.38129,7.8145 -17.99118,10.42276 -4.37115,1.32419 -8.5,4.54941 -8.5,6.63972 0,1.6047 -1.44527,1.69294 -4.13662,0.25257 -1.44858,-0.77526 -2.88755,-0.74664 -5.18426,0.10311 -1.74852,0.64692 -6.10412,1.77273 -9.67912,2.50181 -16.70514,3.40681 -16.94796,3.51414 -18.96461,8.38277 -1.10329,2.66358 -3.58873,4.34566 -10.31345,6.97989 -4.04998,1.58648 -4.5788,4.00593 -1.38422,6.33302 3.05369,2.22445 3.55167,6.19499 0.91228,7.27389 -0.9625,0.39344 -11.875,1.10196 -24.25,1.57449 -12.375,0.47254 -26.1,1.30328 -30.5,1.84611 -4.4,0.54282 -14.75,1.25757 -23,1.58834 -8.25,0.33076 -18.15,1.0412 -22,1.57875 -9.01902,1.25927 -80.92097,2.07537 -94,1.06693 -5.5,-0.42407 -19.33667,-0.33558 -30.74816,0.19664 -15.81506,0.73761 -21.99684,0.67457 -26,-0.26512 -4.44651,-1.04377 -5.92282,-0.99166 -9.62757,0.33984 -5.53848,1.99055 -19.18204,1.96474 -24.62427,-0.0466 z M 477.17643,399.77643 C 475.8735,398.4735 472,399.77474 472,401.51537 c 0,1.10728 0.60889,1.16833 3.07576,0.30837 1.99815,-0.69655 2.73413,-1.41385 2.10067,-2.04731 z M 335,398.55902 c 0,-0.24254 -0.45,-0.7191 -1,-1.05902 -0.55,-0.33992 -1,-0.14148 -1,0.44098 0,0.58246 0.45,1.05902 1,1.05902 0.55,0 1,-0.19844 1,-0.44098 z M 327,393.5 c 0,-0.825 -0.45,-1.5 -1,-1.5 -0.55,0 -1,0.675 -1,1.5 0,0.825 0.45,1.5 1,1.5 0.55,0 1,-0.675 1,-1.5 z M 236.5,368 c -0.48382,-0.78284 -1.05907,-0.84093 -1.72574,-0.17426 -0.55,0.55 -0.67341,1.52841 -0.27426,2.17426 0.48382,0.78284 1.05907,0.84093 1.72574,0.17426 0.55,-0.55 0.67341,-1.52841 0.27426,-2.17426 z m -41.12656,-4.46922 c -0.34129,-0.88937 -0.31834,-1.91921 0.051,-2.28854 0.84598,-0.84599 4.14399,1.16658 3.87839,2.36675 -0.35957,1.62485 -3.2983,1.56636 -3.92938,-0.0782 z"
       transform="matrix(1.0640672,0,0,2.1832263,13.468701,227.62104)" />
  </g>
</svg>
